<svg width="47" height="20" viewBox="0 0 47 20" fill="none" xmlns="http://www.w3.org/2000/svg">
<path d="M0.945 13.228C0.945 14.845 2.268 16.315 4.41 16.315C6.069 16.315 7.077 15.475 7.56 14.698C7.56 15.517 7.644 15.937 7.665 16H9.933C9.912 15.895 9.807 15.286 9.807 14.362V9.28C9.807 7.243 8.61 5.458 5.46 5.458C2.94 5.458 1.344 7.033 1.155 8.797L3.381 9.301C3.486 8.272 4.2 7.453 5.481 7.453C6.825 7.453 7.413 8.146 7.413 9.007C7.413 9.364 7.245 9.658 6.657 9.742L4.032 10.141C2.289 10.393 0.945 11.401 0.945 13.228ZM4.872 14.404C3.906 14.404 3.381 13.774 3.381 13.081C3.381 12.241 3.99 11.821 4.746 11.695L7.413 11.296V11.758C7.413 13.753 6.237 14.404 4.872 14.404ZM15.1668 19.99V14.845C15.6918 15.622 16.8048 16.252 18.2748 16.252C21.2148 16.252 23.0838 13.942 23.0838 10.876C23.0838 7.852 21.3828 5.542 18.3588 5.542C16.7838 5.542 15.6078 6.277 15.1038 7.159V5.773H12.7518V19.99H15.1668ZM20.6478 10.876C20.6478 12.829 19.5138 14.089 17.8968 14.089C16.3008 14.089 15.1458 12.829 15.1458 10.876C15.1458 8.965 16.3008 7.705 17.8968 7.705C19.5348 7.705 20.6478 8.965 20.6478 10.876ZM27.1266 9.763C27.2106 8.671 28.0926 7.495 29.6256 7.495C31.3056 7.495 32.1036 8.566 32.1456 9.763H27.1266ZM32.4186 12.43C32.0826 13.438 31.3266 14.215 29.8566 14.215C28.3446 14.215 27.1266 13.102 27.0636 11.548H34.5396C34.5606 11.506 34.6026 11.17 34.6026 10.771C34.6026 7.537 32.7546 5.458 29.6046 5.458C27.0216 5.458 24.6276 7.6 24.6276 10.834C24.6276 14.299 27.0846 16.315 29.8566 16.315C32.3136 16.315 33.9306 14.866 34.4766 13.081L32.4186 12.43ZM38.5685 10.855C38.5685 8.902 39.7445 7.663 41.3405 7.663C42.9365 7.663 44.0285 8.881 44.0285 10.834C44.0285 12.787 42.9155 14.11 41.3195 14.11C39.6605 14.11 38.5685 12.808 38.5685 10.855ZM46.3805 0.795999H44.0075V6.97C43.6925 6.319 42.7895 5.5 41.0045 5.5C38.1275 5.5 36.1325 7.915 36.1325 10.855C36.1325 13.942 38.1065 16.252 41.0465 16.252C42.4955 16.252 43.5665 15.538 44.0495 14.677C44.0495 15.097 44.1125 15.769 44.1545 16H46.4855C46.4645 15.832 46.3805 15.055 46.3805 14.131V0.795999Z" fill="black"/>
</svg>
